<svg xmlns="http://www.w3.org/2000/svg" width="371.39" height="319" viewBox="0 0 371.39 319">
  <path id="Icon_fa-solid-cloud" data-name="Icon fa-solid-cloud" d="M0,178.66a83.584,83.584,0,0,0,83.563,83.563H297.112a74.274,74.274,0,0,0,14.856-147.047,55.775,55.775,0,0,0-51.995-75.787,55.424,55.424,0,0,0-30.93,9.4A92.855,92.855,0,0,0,55.709,95.1c0,1.567.058,3.134.116,4.7A83.62,83.62,0,0,0,0,178.66Z" transform="translate(0 -2.25)" fill="#b4b2b2"/>
  <rect id="Rectangle_50" data-name="Rectangle 50" width="10" height="44" rx="5" transform="translate(48.695 189)" fill="#00c4ff"/>
  <rect id="Rectangle_51" data-name="Rectangle 51" width="10" height="44" rx="5" transform="translate(86.695 228)" fill="#00c4ff"/>
  <rect id="Rectangle_52" data-name="Rectangle 52" width="10" height="44" rx="5" transform="translate(284.695 267)" fill="#00c4ff"/>
  <rect id="Rectangle_53" data-name="Rectangle 53" width="10" height="44" rx="5" transform="translate(227.695 250)" fill="#00c4ff"/>
  <rect id="Rectangle_54" data-name="Rectangle 54" width="10" height="44" rx="5" transform="translate(276.695 206)" fill="#00c4ff"/>
  <rect id="Rectangle_58" data-name="Rectangle 58" width="10" height="44" rx="5" transform="translate(326.695 233)" fill="#00c4ff"/>
  <rect id="Rectangle_57" data-name="Rectangle 57" width="10" height="44" rx="5" transform="translate(39.695 272)" fill="#00c4ff"/>
  <rect id="Rectangle_56" data-name="Rectangle 56" width="10" height="44" rx="5" transform="translate(123.695 275)" fill="#00c4ff"/>
  <rect id="Rectangle_55" data-name="Rectangle 55" width="10" height="44" rx="5" transform="translate(180.695 272)" fill="#00c4ff"/>
</svg>
