<svg xmlns="http://www.w3.org/2000/svg" width="33" height="33" viewBox="0 0 33 33">
  <g id="Icon_akar-schedule" data-name="Icon akar-schedule" transform="translate(-1.5 -1.5)">
    <path id="Path_13" data-name="Path 13" d="M13.5,30H9a6,6,0,0,1-6-6V10.5a6,6,0,0,1,6-6H25.5a6,6,0,0,1,6,6V15M12,3V6M22.5,3V6M3,12H31.5M27.75,23.465l-2.25,2.25" fill="none" stroke="#fff" stroke-linecap="round" stroke-linejoin="round" stroke-width="3"/>
    <path id="Path_14" data-name="Path 14" d="M33,25.5A7.5,7.5,0,1,1,25.5,18,7.5,7.5,0,0,1,33,25.5Z" fill="none" stroke="#fff" stroke-linecap="round" stroke-linejoin="round" stroke-width="3"/>
  </g>
</svg>
