<svg xmlns="http://www.w3.org/2000/svg" width="34.81" height="35.235" viewBox="0 0 34.81 35.235">
  <path id="Path_9" data-name="Path 9" d="M36.31,32.84v-11.9a7.069,7.069,0,0,0-2.2-5.125l-11.27-10.7a3.534,3.534,0,0,0-4.869,0L6.7,15.816a7.069,7.069,0,0,0-2.2,5.125v11.9a3.534,3.534,0,0,0,3.534,3.534H32.776A3.534,3.534,0,0,0,36.31,32.84Z" transform="translate(-3 -2.64)" fill="none" stroke="#fff" stroke-linecap="round" stroke-linejoin="round" stroke-width="3"/>
  <path id="Path_10" data-name="Path 10" d="M13.5,23.034A3.534,3.534,0,0,1,17.034,19.5h3.534A3.534,3.534,0,0,1,24.1,23.034v10.6H13.5Z" transform="translate(-1.397 0.097)" fill="none" stroke="#fff" stroke-linecap="round" stroke-linejoin="round" stroke-width="3"/>
</svg>
